<?xml version="1.0" encoding="UTF-8"?>
<!DOCTYPE svg PUBLIC "-//W3C//DTD SVG 1.1//EN" "http://www.w3.org/Graphics/SVG/1.1/DTD/svg11.dtd">
<!-- Creator: CorelDRAW -->
<svg xmlns="http://www.w3.org/2000/svg" xml:space="preserve" width="327.48mm" height="182.307mm" version="1.1" style="shape-rendering:geometricPrecision; text-rendering:geometricPrecision; image-rendering:optimizeQuality; fill-rule:evenodd; clip-rule:evenodd"
viewBox="0 0 14194.99 7902.32"
 xmlns:xlink="http://www.w3.org/1999/xlink"
 xmlns:xodm="http://www.corel.com/coreldraw/odm/2003">
 <defs>
  <style type="text/css">
   <![CDATA[
    .fil12 {fill:none}
    .fil17 {fill:none;fill-rule:nonzero}
    .fil7 {fill:black;fill-rule:nonzero}
    .fil10 {fill:#131313;fill-rule:nonzero}
    .fil15 {fill:#1D1D1B;fill-rule:nonzero}
    .fil13 {fill:#5E465D;fill-rule:nonzero}
    .fil14 {fill:#A597A4;fill-rule:nonzero}
    .fil16 {fill:white;fill-rule:nonzero}
    .fil6 {fill:url(#id11)}
    .fil18 {fill:url(#id12)}
    .fil0 {fill:url(#id13)}
    .fil29 {fill:url(#id14)}
    .fil9 {fill:url(#id15)}
    .fil3 {fill:url(#id16)}
    .fil8 {fill:url(#id17)}
    .fil2 {fill:url(#id18)}
    .fil4 {fill:url(#id19)}
    .fil1 {fill:url(#id20)}
    .fil19 {fill:url(#id21)}
    .fil27 {fill:url(#id22)}
    .fil21 {fill:url(#id23)}
    .fil24 {fill:url(#id24)}
    .fil30 {fill:url(#id25)}
    .fil23 {fill:url(#id26)}
    .fil26 {fill:url(#id27)}
    .fil20 {fill:url(#id28)}
    .fil28 {fill:url(#id29)}
    .fil22 {fill:url(#id30)}
    .fil25 {fill:url(#id31)}
    .fil5 {fill:url(#id32)}
    .fil11 {fill:url(#id33)}
   ]]>
  </style>
   <clipPath id="id0">
    <path d="M2734.78 7216.81l0 0c0,-109.87 1775.79,-198.95 5199.26,-198.95 3423.46,0 5303.54,84.53 5303.54,194.46 0,0.06 0,0.18 0,0.24l0 -0.55c-2.98,-109.32 -1868.16,-193.48 -5264.8,-194.15l-77.47 0c-3399.63,0.67 -5160.52,89.51 -5160.52,198.95l0 0z"/>
   </clipPath>
   <clipPath id="id1">
    <path d="M3162.31 6482.63l9647.8 0 0 -6052.28 -9647.8 0 0 6052.28z"/>
   </clipPath>
    <clipPath id="id2">
     <path d="M3162.31 6482.63l9647.8 0 0 -6052.28 -9647.8 0 0 6052.28z"/>
    </clipPath>
    <clipPath id="id3">
     <path d="M3162.31 6482.63l9647.8 0 0 -6052.28 -9647.8 0 0 6052.28z"/>
    </clipPath>
   <clipPath id="id4" style="clip-rule:nonzero">
    <path d="M2705.75 7747.47l-2154.4 0c-203.16,0 -367.84,-164.69 -367.84,-367.84l0 -5523.98c0,-203.15 164.67,-367.84 367.82,-367.84 80.66,0 161.68,0 247.05,0l1907.36 0c203.16,0 367.84,164.69 367.84,367.84l0 5523.98c0,203.15 -164.68,367.84 -367.84,367.84zm-1346.83 -6163.35c-57.56,0 -104.21,46.65 -104.21,104.21 0,57.56 46.65,104.21 104.21,104.21l511.5 0c57.56,0 104.21,-46.66 104.21,-104.21 0,-57.56 -46.65,-104.21 -104.21,-104.21l-511.5 0z"/>
   </clipPath>
    <clipPath id="id5">
     <path d="M2705.75 7747.47l-2154.4 0c-203.16,0 -367.84,-164.69 -367.84,-367.84l0 -5523.98c0,-203.15 164.67,-367.84 367.82,-367.84 80.66,0 161.68,0 247.05,0l1907.36 0c203.16,0 367.84,164.69 367.84,367.84l0 5523.98c0,203.15 -164.68,367.84 -367.84,367.84zm-1346.83 -6163.35c-57.56,0 -104.21,46.65 -104.21,104.21 0,57.56 46.65,104.21 104.21,104.21l511.5 0c57.56,0 104.21,-46.66 104.21,-104.21 0,-57.56 -46.65,-104.21 -104.21,-104.21l-511.5 0z"/>
    </clipPath>
    <clipPath id="id6">
     <path d="M2705.75 7747.47l-2154.4 0c-203.16,0 -367.84,-164.69 -367.84,-367.84l0 -5523.98c0,-203.15 164.67,-367.84 367.82,-367.84 80.66,0 161.68,0 247.05,0l1907.36 0c203.16,0 367.84,164.69 367.84,367.84l0 5523.98c0,203.15 -164.68,367.84 -367.84,367.84zm-1346.83 -6163.35c-57.56,0 -104.21,46.65 -104.21,104.21 0,57.56 46.65,104.21 104.21,104.21l511.5 0c57.56,0 104.21,-46.66 104.21,-104.21 0,-57.56 -46.65,-104.21 -104.21,-104.21l-511.5 0z"/>
    </clipPath>
   <clipPath id="id7">
    <path d="M1841.45 1730.82c-4.25,0 -8.47,-0.63 -12.6,-1.93 -6.63,-2.09 -12.53,-5.74 -17.29,-10.5 -4.89,-4.89 -8.38,-10.85 -10.38,-17.23 -3.42,-10.95 -2.51,-23.16 3.3,-33.51 1.91,-3.46 4.28,-6.6 7.04,-9.36 4.79,-4.79 10.69,-8.44 17.29,-10.53 4.13,-1.27 8.38,-1.9 12.63,-1.9 4.95,0 9.87,0.85 14.53,2.54 5.84,2.09 11.23,5.43 15.7,9.9 2.76,2.76 5.14,5.9 7.07,9.36 5.78,10.34 6.73,22.56 3.27,33.51 -2,6.38 -5.46,12.34 -10.37,17.23 -4.44,4.47 -9.84,7.81 -15.67,9.87 -4.66,1.68 -9.58,2.57 -14.53,2.57zm0.16 -68.5c-14.34,0 -25.99,11.65 -25.99,26.02 0,14.34 11.65,25.99 25.99,25.99 14.34,0 26.02,-11.64 26.02,-25.99 0,-14.37 -11.67,-26.02 -26.02,-26.02l0 0z"/>
   </clipPath>
   <clipPath id="id8">
    <path d="M1841.6 1711.1c-12.63,0 -22.74,-10.19 -22.74,-22.74 0,-12.62 10.11,-22.78 22.74,-22.78 12.57,0 22.76,10.16 22.76,22.78 0,3.6 -0.86,7.01 -2.34,10.04 -0.82,-3.62 -4.06,-6.3 -7.91,-6.3 -4.5,0 -8.12,3.64 -8.12,8.12 0,4.01 2.89,7.34 6.71,7.99 -3.28,1.84 -7.07,2.89 -11.09,2.89l0 0z"/>
   </clipPath>
   <clipPath id="id9">
    <path d="M1854.1 1708.34c-0.49,0 -0.94,-0.05 -1.41,-0.13 4.03,-2.25 7.29,-5.67 9.34,-9.8 0.12,0.55 0.2,1.17 0.2,1.8 0,4.48 -3.64,8.13 -8.12,8.13l0 0z"/>
   </clipPath>
   <clipPath id="id10">
    <path d="M1852.69 1708.21c-3.82,-0.66 -6.71,-4 -6.71,-7.99 0,-4.49 3.62,-8.12 8.11,-8.12 3.85,0 7.1,2.68 7.92,6.32 -2.04,4.12 -5.3,7.55 -9.33,9.8l0 0z"/>
   </clipPath>
  <linearGradient id="id11" gradientUnits="userSpaceOnUse" x1="7986.22" y1="353.65" x2="7986.22" y2="0">
   <stop offset="0" style="stop-opacity:1; stop-color:#1A1A1A"/>
   <stop offset="0.890196" style="stop-opacity:1; stop-color:#5C5C5C"/>
   <stop offset="1" style="stop-opacity:1; stop-color:#9F9F9F"/>
  </linearGradient>
  <linearGradient id="id12" gradientUnits="userSpaceOnUse" x1="3238.95" y1="3011.43" x2="3238.95" y2="3803.2">
   <stop offset="0" style="stop-opacity:1; stop-color:#68595F"/>
   <stop offset="0.0196078" style="stop-opacity:1; stop-color:#896E80"/>
   <stop offset="0.0392157" style="stop-opacity:1; stop-color:#5E3B5B"/>
   <stop offset="0.0784314" style="stop-opacity:1; stop-color:#2B1D2A"/>
   <stop offset="0.109804" style="stop-opacity:1; stop-color:#704A6A"/>
   <stop offset="0.901961" style="stop-opacity:1; stop-color:#615060"/>
   <stop offset="0.941176" style="stop-opacity:1; stop-color:#2B1D2A"/>
   <stop offset="0.960784" style="stop-opacity:1; stop-color:#5E3B5B"/>
   <stop offset="0.980392" style="stop-opacity:1; stop-color:#845675"/>
   <stop offset="1" style="stop-opacity:1; stop-color:#5B4A5C"/>
  </linearGradient>
  <linearGradient id="id13" gradientUnits="userSpaceOnUse" x1="7986.22" y1="7126.73" x2="7986.22" y2="6921.22">
   <stop offset="0" style="stop-opacity:1; stop-color:#575554"/>
   <stop offset="0.458824" style="stop-opacity:1; stop-color:#575554"/>
   <stop offset="1" style="stop-opacity:1; stop-color:#131313"/>
  </linearGradient>
  <linearGradient id="id14" gradientUnits="userSpaceOnUse" x1="1841.61" y1="1731.02" x2="1841.61" y2="1641.39">
   <stop offset="0" style="stop-opacity:1; stop-color:#666666"/>
   <stop offset="1" style="stop-opacity:1; stop-color:#010104"/>
  </linearGradient>
  <linearGradient id="id15" gradientUnits="userSpaceOnUse" x1="6946.24" y1="6887.67" x2="9025.58" y2="6887.67">
   <stop offset="0" style="stop-opacity:1; stop-color:#838180"/>
   <stop offset="0.0588235" style="stop-opacity:1; stop-color:#6B6968"/>
   <stop offset="0.509804" style="stop-opacity:1; stop-color:#838180"/>
   <stop offset="0.941176" style="stop-opacity:1; stop-color:#6B6968"/>
   <stop offset="1" style="stop-opacity:1; stop-color:#838180"/>
  </linearGradient>
  <linearGradient id="id16" gradientUnits="userSpaceOnUse" x1="6946.24" y1="6898.38" x2="9025.58" y2="6898.38">
   <stop offset="0" style="stop-opacity:1; stop-color:#565656"/>
   <stop offset="0.0588235" style="stop-opacity:1; stop-color:#444444"/>
   <stop offset="0.509804" style="stop-opacity:1; stop-color:#565656"/>
   <stop offset="0.941176" style="stop-opacity:1; stop-color:#444444"/>
   <stop offset="1" style="stop-opacity:1; stop-color:#565656"/>
  </linearGradient>
  <linearGradient id="id17" gradientUnits="userSpaceOnUse" x1="9025.57" y1="6884.66" x2="14194.35" y2="6884.66">
   <stop offset="0" style="stop-opacity:1; stop-color:#818181"/>
   <stop offset="0.00392157" style="stop-opacity:1; stop-color:#515151"/>
   <stop offset="0.0117647" style="stop-opacity:1; stop-color:#202020"/>
   <stop offset="0.0196078" style="stop-opacity:1; stop-color:#373737"/>
   <stop offset="0.0196078" style="stop-opacity:1; stop-color:#4F4F4F"/>
   <stop offset="0.0313725" style="stop-opacity:1; stop-color:#6B6968"/>
   <stop offset="0.4" style="stop-opacity:1; stop-color:#6B6968"/>
   <stop offset="0.411765" style="stop-opacity:1; stop-color:#6B6968"/>
   <stop offset="0.941176" style="stop-opacity:1; stop-color:#686868"/>
   <stop offset="0.952941" style="stop-opacity:1; stop-color:#3E3E3E"/>
   <stop offset="0.968627" style="stop-opacity:1; stop-color:#131313"/>
   <stop offset="0.992157" style="stop-opacity:1; stop-color:#3F3E3D"/>
   <stop offset="1" style="stop-opacity:1; stop-color:#6B6968"/>
  </linearGradient>
  <linearGradient id="id18" gradientUnits="userSpaceOnUse" x1="9025.57" y1="6895.38" x2="14194.35" y2="6895.38">
   <stop offset="0" style="stop-opacity:1; stop-color:#505050"/>
   <stop offset="0.00392157" style="stop-opacity:1; stop-color:#383838"/>
   <stop offset="0.0117647" style="stop-opacity:1; stop-color:#1F1F1F"/>
   <stop offset="0.0196078" style="stop-opacity:1; stop-color:#2B2B2B"/>
   <stop offset="0.0196078" style="stop-opacity:1; stop-color:#373737"/>
   <stop offset="0.0313725" style="stop-opacity:1; stop-color:#565656"/>
   <stop offset="0.4" style="stop-opacity:1; stop-color:#5E5E5E"/>
   <stop offset="0.411765" style="stop-opacity:1; stop-color:#5E5E5E"/>
   <stop offset="0.941176" style="stop-opacity:1; stop-color:#444444"/>
   <stop offset="0.952941" style="stop-opacity:1; stop-color:#2B2B2B"/>
   <stop offset="0.968627" style="stop-opacity:1; stop-color:#121212"/>
   <stop offset="0.992157" style="stop-opacity:1; stop-color:#343434"/>
   <stop offset="1" style="stop-opacity:1; stop-color:#565656"/>
  </linearGradient>
  <linearGradient id="id19" gradientUnits="userSpaceOnUse" x1="6946.24" y1="6884.66" x2="1777.46" y2="6884.66">
   <stop offset="0" style="stop-opacity:1; stop-color:#A7A7A7"/>
   <stop offset="0.00392157" style="stop-opacity:1; stop-color:#767676"/>
   <stop offset="0.0117647" style="stop-opacity:1; stop-color:#454545"/>
   <stop offset="0.0196078" style="stop-opacity:1; stop-color:#5D5D5D"/>
   <stop offset="0.0196078" style="stop-opacity:1; stop-color:#757575"/>
   <stop offset="0.0313725" style="stop-opacity:1; stop-color:#6B6968"/>
   <stop offset="0.4" style="stop-opacity:1; stop-color:#6B6968"/>
   <stop offset="0.411765" style="stop-opacity:1; stop-color:#6B6968"/>
   <stop offset="0.941176" style="stop-opacity:1; stop-color:#8D8D8D"/>
   <stop offset="0.952941" style="stop-opacity:1; stop-color:#5C5C5C"/>
   <stop offset="0.968627" style="stop-opacity:1; stop-color:#2B2B2B"/>
   <stop offset="0.992157" style="stop-opacity:1; stop-color:#4B4A49"/>
   <stop offset="1" style="stop-opacity:1; stop-color:#6B6968"/>
  </linearGradient>
  <linearGradient id="id20" gradientUnits="userSpaceOnUse" x1="6946.24" y1="6895.38" x2="1777.46" y2="6895.38">
   <stop offset="0" style="stop-opacity:1; stop-color:#767676"/>
   <stop offset="0.00392157" style="stop-opacity:1; stop-color:#5E5E5E"/>
   <stop offset="0.0117647" style="stop-opacity:1; stop-color:#454545"/>
   <stop offset="0.0196078" style="stop-opacity:1; stop-color:#515151"/>
   <stop offset="0.0196078" style="stop-opacity:1; stop-color:#5D5D5D"/>
   <stop offset="0.0313725" style="stop-opacity:1; stop-color:#7C7C7C"/>
   <stop offset="0.4" style="stop-opacity:1; stop-color:#838383"/>
   <stop offset="0.411765" style="stop-opacity:1; stop-color:#838383"/>
   <stop offset="0.941176" style="stop-opacity:1; stop-color:#6A6A6A"/>
   <stop offset="0.952941" style="stop-opacity:1; stop-color:#515151"/>
   <stop offset="0.968627" style="stop-opacity:1; stop-color:#383838"/>
   <stop offset="0.992157" style="stop-opacity:1; stop-color:#5A5A5A"/>
   <stop offset="1" style="stop-opacity:1; stop-color:#7C7C7C"/>
  </linearGradient>
  <linearGradient id="id21" gradientUnits="userSpaceOnUse" x1="3253" y1="3011.64" x2="3253" y2="3803.25">
   <stop offset="0" style="stop-opacity:1; stop-color:#676067"/>
   <stop offset="0.0588235" style="stop-opacity:1; stop-color:#654E63"/>
   <stop offset="0.188235" style="stop-opacity:1; stop-color:#786F77"/>
   <stop offset="0.811765" style="stop-opacity:1; stop-color:#786F77"/>
   <stop offset="0.921569" style="stop-opacity:1; stop-color:#654E63"/>
   <stop offset="1" style="stop-opacity:1; stop-color:#676067"/>
  </linearGradient>
  <linearGradient id="id22" gradientUnits="userSpaceOnUse" xlink:href="#id21" x1="2.67" y1="2371.01" x2="2.67" y2="2628.34">
  </linearGradient>
  <linearGradient id="id23" gradientUnits="userSpaceOnUse" xlink:href="#id21" x1="2.67" y1="2844.91" x2="2.67" y2="3346.36">
  </linearGradient>
  <linearGradient id="id24" gradientUnits="userSpaceOnUse" xlink:href="#id21" x1="2.67" y1="3475.93" x2="2.67" y2="3977.38">
  </linearGradient>
  <linearGradient id="id25" gradientUnits="userSpaceOnUse" x1="1841.61" y1="1663.94" x2="1841.61" y2="1715.15">
   <stop offset="0" style="stop-opacity:1; stop-color:#0B131C"/>
   <stop offset="1" style="stop-opacity:1; stop-color:#354039"/>
  </linearGradient>
  <linearGradient id="id26" gradientUnits="userSpaceOnUse" x1="10.7" y1="3475.79" x2="10.7" y2="3977.35">
   <stop offset="0" style="stop-opacity:1; stop-color:#68595F"/>
   <stop offset="0.0196078" style="stop-opacity:1; stop-color:#896E80"/>
   <stop offset="0.0392157" style="stop-opacity:1; stop-color:#5E3B5B"/>
   <stop offset="0.0784314" style="stop-opacity:1; stop-color:#2D1E2C"/>
   <stop offset="0.109804" style="stop-opacity:1; stop-color:#704A6A"/>
   <stop offset="0.901961" style="stop-opacity:1; stop-color:#615060"/>
   <stop offset="0.941176" style="stop-opacity:1; stop-color:#2D1E2C"/>
   <stop offset="0.960784" style="stop-opacity:1; stop-color:#5E3B5B"/>
   <stop offset="0.980392" style="stop-opacity:1; stop-color:#845675"/>
   <stop offset="1" style="stop-opacity:1; stop-color:#5B4A5C"/>
  </linearGradient>
  <linearGradient id="id27" gradientUnits="userSpaceOnUse" xlink:href="#id26" x1="10.7" y1="2370.88" x2="10.7" y2="2628.32">
  </linearGradient>
  <linearGradient id="id28" gradientUnits="userSpaceOnUse" xlink:href="#id26" x1="10.7" y1="2844.77" x2="10.7" y2="3346.33">
  </linearGradient>
  <linearGradient id="id29" gradientUnits="userSpaceOnUse" x1="21.79" y1="2628.47" x2="21.79" y2="2371.01">
   <stop offset="0" style="stop-opacity:1; stop-color:#68595F"/>
   <stop offset="0.0509804" style="stop-opacity:1; stop-color:#2D1E2C"/>
   <stop offset="0.521569" style="stop-opacity:1; stop-color:#5E3B5B"/>
   <stop offset="0.960784" style="stop-opacity:1; stop-color:#2D1E2C"/>
   <stop offset="1" style="stop-opacity:1; stop-color:#5B4A5C"/>
  </linearGradient>
  <linearGradient id="id30" gradientUnits="userSpaceOnUse" xlink:href="#id29" x1="21.79" y1="3346.49" x2="21.79" y2="2844.9">
  </linearGradient>
  <linearGradient id="id31" gradientUnits="userSpaceOnUse" xlink:href="#id29" x1="21.79" y1="3977.51" x2="21.79" y2="3475.92">
  </linearGradient>
  <linearGradient id="id32" gradientUnits="userSpaceOnUse" x1="7986.54" y1="6820.17" x2="7986.54" y2="44.25">
   <stop offset="0" style="stop-opacity:1; stop-color:#504E4E"/>
   <stop offset="0.278431" style="stop-opacity:1; stop-color:#737171"/>
   <stop offset="0.45098" style="stop-opacity:1; stop-color:#979494"/>
   <stop offset="1" style="stop-opacity:1; stop-color:#7B7878"/>
  </linearGradient>
  <linearGradient id="id33" gradientUnits="userSpaceOnUse" x1="4061.18" y1="-468.54" x2="11911.23" y2="7381.51">
   <stop offset="0" style="stop-opacity:1; stop-color:#F2F3F4"/>
   <stop offset="0.701961" style="stop-opacity:1; stop-color:#E4E5E5"/>
   <stop offset="1" style="stop-opacity:1; stop-color:#D5D6D6"/>
  </linearGradient>
 </defs>
 <g id="Camada_x0020_1">
  <metadata id="CorelCorpID_0Corel-Layer"/>
  <g style="clip-path:url(#id0)">
   <image x="2728.82" y="7009.66" width="10511.73" height="214.39" xlink:href="MOCKUP AEROWAVE_Images\MOCKUP AEROWAVE_ImgID1.png"/>
  </g>
  <path class="fil0" d="M1777.44 6921.21c436.59,136.23 891.3,205.52 1348.64,205.52l9720.27 0c457.34,0 912.05,-69.29 1348.64,-205.52l-12417.54 0z"/>
  <path class="fil1" d="M1777.44 6847.43l0 73.81 5005.42 0c49.31,0 98.26,7 146.29,18.44 5.63,1.37 11.33,2.58 17.08,3.64l0 -95.89 -5168.79 0z"/>
  <path class="fil2" d="M14194.35 6847.43l0 73.81 -5005.4 0c-49.31,0 -98.28,7 -146.29,18.44 -5.64,1.37 -11.33,2.58 -17.08,3.64l0 -95.89 5168.78 0z"/>
  <path class="fil3" d="M9025.57 6847.43l0 95.89c-21.31,3.96 -43,6.01 -64.79,6.01l-1949.77 0c-21.79,0 -43.47,-2.05 -64.77,-6.01l0 -95.89 2079.33 0z"/>
  <path class="fil4" d="M1777.44 6836.72l0 73.8 5005.42 0c49.31,0 98.26,7.02 146.29,18.46 5.63,1.38 11.33,2.59 17.08,3.64l0 -95.89 -5168.79 0z"/>
  <path class="fil5" d="M12754.45 44.25l-9535.15 0c-170.87,0 -309.41,138.54 -309.41,309.41l0 6466.51 44.22 0 0 -6510.8c0,-13.66 1.06,-27.1 3.06,-40.23 0.64,-4.37 1.42,-8.7 2.32,-13.01 0.89,-4.28 1.85,-8.55 2.95,-12.77 1.12,-4.22 2.26,-8.43 3.59,-12.54 10.95,-35.21 29.09,-67.26 52.67,-94.47 2.74,-3.23 5.58,-6.33 8.53,-9.39 1.42,-1.53 2.9,-3.01 4.43,-4.53 13.49,-13.46 28.41,-25.52 44.5,-35.86 5.37,-3.42 10.86,-6.7 16.5,-9.76 5.58,-3.06 11.33,-5.9 17.17,-8.53l0.06 -0.06c3.9,-1.75 7.86,-3.38 11.81,-4.95l0.06 -0.05c30,-11.8 62.74,-18.35 96.9,-18.35l9535.14 0c45.55,0 88.52,11.6 126.02,31.94 5.58,3.06 11.12,6.33 16.5,9.76 7.11,4.59 14.02,9.54 20.72,14.71l0.05 0.04c3.32,2.64 6.59,5.34 9.75,8.08l0.05 0.04c4.8,4.16 9.43,8.49 13.91,12.99 1.53,1.51 3.01,3 4.43,4.53 2.95,3.06 5.8,6.16 8.53,9.39 40.23,46.38 64.59,106.9 64.59,173.02l0 6510.8 44.8 0 0 -6485.96c-10.01,-161.8 -144.39,-289.96 -308.72,-289.96z"/>
  <path class="fil6" d="M2909.25 309.42c0,-170.87 138.56,-309.42 309.42,-309.42l9535.15 0c170.87,0 309.37,138.56 309.37,309.42l0 24.77c-10.03,-161.8 -144.41,-289.96 -308.74,-289.96l-9535.15 0c-170.87,0 -309.41,138.54 -309.41,309.41l-0.64 -44.23z"/>
  <polygon class="fil7" points="2954.11,6820.17 13018.37,6820.17 13018.37,6602.91 2954.11,6602.91 "/>
  <path class="fil7" d="M13018.35 309.39l0 6293.54 -10064.24 0 0 -6293.54c0,-145.86 118.68,-264.54 264.55,-264.54l9535.15 0c145.88,0 264.54,118.68 264.54,264.54z"/>
  <path class="fil8" d="M14194.35 6836.72l0 73.8 -5005.4 0c-49.31,0 -98.28,7.02 -146.29,18.46 -5.64,1.38 -11.33,2.59 -17.08,3.64l0 -95.89 5168.78 0z"/>
  <path class="fil9" d="M9025.57 6836.72l0 95.89c-21.31,3.94 -43,6.01 -64.79,6.01l-1949.77 0c-21.79,0 -43.47,-2.06 -64.77,-6.01l0 -95.89 2079.33 0z"/>
  <polygon class="fil10" points="13063.17,6820.17 13063.17,6836.72 13018.37,6836.72 13018.37,6836.68 2954.11,6836.68 2954.11,6836.72 2909.89,6836.72 2909.89,6820.17 "/>
  <polygon class="fil11" points="3162.31,6482.63 12810.11,6482.63 12810.11,430.35 3162.31,430.35 "/>
  <g style="clip-path:url(#id1)">
   <g id="_1589285093392">
   </g>
   <g style="clip-path:url(#id2)">
    <image x="2457.54" y="342.31" width="11057.34" height="6228.36" xlink:href="MOCKUP AEROWAVE_Images\MOCKUP AEROWAVE_ImgID2.png"/>
   </g>
   <g style="clip-path:url(#id3)">
   </g>
  </g>
  <polygon class="fil12" points="3162.31,6482.63 12810.11,6482.63 12810.11,430.35 3162.31,430.35 "/>
  <path class="fil13" d="M2716.25 7902.32l-2175.41 0c-283.51,0 -513.32,-229.82 -513.32,-513.33l0 -5542.7c0,-283.51 229.82,-513.32 513.32,-513.32l2175.41 0c283.51,0 513.32,229.82 513.32,513.32l0 5542.7c0,283.51 -229.82,513.33 -513.32,513.33zm-2171.38 -6554.05c-277.29,0 -502.05,224.77 -502.05,502.05l0 5534.66c0,277.28 224.77,502.05 502.05,502.05l2167.36 0c277.28,0 502.05,-224.78 502.05,-502.05l0 -5534.66c0,-277.29 -224.77,-502.05 -502.05,-502.05l-2167.36 0zm2163.34 6523.47l-2159.32 0c-271.06,0 -490.78,-219.73 -490.78,-490.79l0 -5526.61c0,-271.06 219.73,-490.78 490.78,-490.78l2159.32 0c271.04,0 490.78,219.73 490.78,490.78l0 5526.61c0,271.06 -219.74,490.79 -490.78,490.79zm-2154.47 -6488.62c-260.68,0 -471.99,211.32 -471.99,471.99l0 5525.08c0,260.68 211.32,471.99 471.99,471.99l2149.62 0c260.68,0 471.99,-211.31 471.99,-471.99l0 -5525.08c0,-260.68 -211.31,-471.99 -471.99,-471.99l-2149.62 0z"/>
  <path class="fil14" d="M2712.23 7887.02l-2167.36 0c-277.29,0 -502.05,-224.78 -502.05,-502.05l0 -5534.66c0,-277.29 224.77,-502.05 502.05,-502.05l2167.36 0c277.28,0 502.05,224.77 502.05,502.05l0 5534.66c0,277.28 -224.77,502.05 -502.05,502.05zm-2163.34 -6523.47c-271.06,0 -490.78,219.73 -490.78,490.78l0 5526.61c0,271.06 219.73,490.79 490.78,490.79l2159.32 0c271.04,0 490.78,-219.73 490.78,-490.79l0 -5526.61c0,-271.06 -219.74,-490.78 -490.78,-490.78l-2159.32 0z"/>
  <path class="fil15" d="M2703.36 7852.17l-2149.62 0c-260.68,0 -471.99,-211.31 -471.99,-471.99l0 -5525.08c0,-260.68 211.32,-471.99 471.99,-471.99l2149.62 0c260.68,0 471.99,211.32 471.99,471.99l0 5525.08c0,260.68 -211.31,471.99 -471.99,471.99zm-2152.03 -6364.36c-203.15,0 -367.82,164.69 -367.82,367.84l0 5523.98c0,203.15 164.67,367.84 367.84,367.84l2154.4 0c203.16,0 367.84,-164.69 367.84,-367.84l0 -5523.98c0,-203.15 -164.68,-367.84 -367.84,-367.84l-1907.36 0c-85.37,0 -166.39,0 -247.05,0z"/>
  <path class="fil16" d="M2705.75 7747.47l-2154.4 0c-203.16,0 -367.84,-164.69 -367.84,-367.84l0 -5523.98c0,-203.15 164.67,-367.84 367.82,-367.84 80.66,0 161.68,0 247.05,0l1907.36 0c203.16,0 367.84,164.69 367.84,367.84l0 5523.98c0,203.15 -164.68,367.84 -367.84,367.84zm-1346.83 -6163.35c-57.56,0 -104.21,46.65 -104.21,104.21 0,57.56 46.65,104.21 104.21,104.21l511.5 0c57.56,0 104.21,-46.66 104.21,-104.21 0,-57.56 -46.65,-104.21 -104.21,-104.21l-511.5 0z"/>
  <g style="clip-path:url(#id4)">
   <g id="_1625161938368">
   </g>
   <g style="clip-path:url(#id5)">
    <image x="-200.96" y="1421.58" width="3659.02" height="6392.12" xlink:href="MOCKUP AEROWAVE_Images\MOCKUP AEROWAVE_ImgID3.png"/>
   </g>
   <g style="clip-path:url(#id6)">
   </g>
  </g>
  <path class="fil17" d="M2705.75 7747.47l-2154.4 0c-203.16,0 -367.84,-164.69 -367.84,-367.84l0 -5523.98c0,-203.15 164.67,-367.84 367.82,-367.84 80.66,0 161.68,0 247.05,0l1907.36 0c203.16,0 367.84,164.69 367.84,367.84l0 5523.98c0,203.15 -164.68,367.84 -367.84,367.84zm-1346.83 -6163.35c-57.56,0 -104.21,46.65 -104.21,104.21 0,57.56 46.65,104.21 104.21,104.21l511.5 0c57.56,0 104.21,-46.66 104.21,-104.21 0,-57.56 -46.65,-104.21 -104.21,-104.21l-511.5 0z"/>
  <polygon class="fil18" points="3229.58,3803.22 3248.32,3803.22 3248.32,3011.43 3229.58,3011.43 "/>
  <path class="fil19" d="M3248.32 3803.25l0 -791.6 9.37 10.28c-4.74,84.29 -4.42,686.94 0,771.05l-9.37 10.28z"/>
  <polygon class="fil20" points="16.06,3346.33 5.35,3346.33 5.35,2844.77 16.06,2844.77 "/>
  <path class="fil21" d="M5.35 3346.36l-5.35 -6.51c2.52,-53.28 2.7,-435.04 0,-488.43l5.35 -6.51 0 501.46z"/>
  <polygon class="fil22" points="27.52,3346.49 16.06,3346.49 16.06,2844.91 27.52,2844.91 "/>
  <polygon class="fil23" points="16.06,3977.35 5.35,3977.35 5.35,3475.79 16.06,3475.79 "/>
  <path class="fil24" d="M5.35 3977.38l-5.35 -6.51c2.52,-53.28 2.7,-435.04 0,-488.43l5.35 -6.51 0 501.45z"/>
  <polygon class="fil25" points="27.52,3977.51 16.06,3977.51 16.06,3475.93 27.52,3475.93 "/>
  <polygon class="fil26" points="16.06,2628.32 5.35,2628.32 5.35,2370.88 16.06,2370.88 "/>
  <path class="fil27" d="M5.35 2628.35l-5.35 -6.16c2.52,-50.39 2.7,-194.52 0,-245.03l5.35 -6.15 0 257.34z"/>
  <polygon class="fil28" points="27.52,2628.47 16.06,2628.47 16.06,2371.01 27.52,2371.01 "/>
  <path class="fil15" d="M1870.41 1792.54l-511.5 0c-57.56,0 -104.21,-46.66 -104.21,-104.21 0,-57.56 46.65,-104.21 104.21,-104.21l511.5 0c57.56,0 104.21,46.65 104.21,104.21 0,57.56 -46.65,104.21 -104.21,104.21zm-28.81 -149.7c-25.12,0 -45.49,20.37 -45.49,45.49 0,25.14 20.37,45.49 45.49,45.49 25.12,0 45.49,-20.35 45.49,-45.49 0,-25.12 -20.37,-45.49 -45.49,-45.49z"/>
  <path class="fil29" d="M1841.61 1733.82c-25.12,0 -45.49,-20.35 -45.49,-45.49 0,-25.12 20.37,-45.49 45.49,-45.49 25.12,0 45.49,20.37 45.49,45.49 0,25.14 -20.37,45.49 -45.49,45.49zm-0.17 -87.96c-4.23,0 -8.49,0.63 -12.6,1.91 -6.62,2.09 -12.52,5.73 -17.3,10.52 -2.77,2.75 -5.14,5.9 -7.07,9.35 -5.78,10.37 -6.73,22.58 -3.3,33.52 2,6.39 5.5,12.34 10.39,17.23 4.77,4.76 10.67,8.41 17.3,10.49 4.11,1.3 8.36,1.92 12.6,1.92 4.95,0 9.88,-0.87 14.53,-2.54 5.83,-2.08 11.22,-5.41 15.69,-9.88 4.89,-4.89 8.37,-10.84 10.37,-17.23 3.44,-10.94 2.49,-23.15 -3.29,-33.52 -1.91,-3.44 -4.3,-6.59 -7.07,-9.35 -4.46,-4.48 -9.87,-7.81 -15.69,-9.91 -4.66,-1.66 -9.6,-2.52 -14.56,-2.52z"/>
  <g style="clip-path:url(#id7)">
   <image x="1784.25" y="1632.47" width="111.93" height="111.93" xlink:href="MOCKUP AEROWAVE_Images\MOCKUP AEROWAVE_ImgID4.png"/>
  </g>
  <path class="fil30" d="M1841.61 1714.32c-14.34,0 -25.98,-11.64 -25.98,-25.99 0,-14.36 11.64,-25.99 25.98,-25.99 14.36,0 26.01,11.63 26.01,25.99 0,14.36 -11.65,25.99 -26.01,25.99zm-22.76 -25.96c0,12.55 10.13,22.74 22.74,22.74 4.02,0 7.82,-1.06 11.1,-2.89 0.46,0.08 0.92,0.14 1.41,0.14 4.48,0 8.12,-3.65 8.12,-8.14 0,-0.63 -0.07,-1.24 -0.2,-1.8 1.48,-3.03 2.33,-6.45 2.33,-10.05 0,-12.62 -10.19,-22.77 -22.76,-22.77 -12.61,0 -22.74,10.15 -22.74,22.77z"/>
  <g style="clip-path:url(#id8)">
   <image x="1805.66" y="1653.88" width="67.59" height="67.59" xlink:href="MOCKUP AEROWAVE_Images\MOCKUP AEROWAVE_ImgID5.png"/>
  </g>
  <g style="clip-path:url(#id9)">
   <image x="1842.36" y="1684.46" width="30.89" height="37.01" xlink:href="MOCKUP AEROWAVE_Images\MOCKUP AEROWAVE_ImgID6.png"/>
  </g>
  <g style="clip-path:url(#id10)">
   <image x="1834.71" y="1684.46" width="38.54" height="37.01" xlink:href="MOCKUP AEROWAVE_Images\MOCKUP AEROWAVE_ImgID7.png"/>
  </g>
 </g>
</svg>
